<mxfile host="65bd71144e">
    <diagram id="N5UFrJKNy78vIE9knraO" name="第 1 页">
        <mxGraphModel dx="1414" dy="810" grid="0" gridSize="10" guides="1" tooltips="1" connect="1" arrows="1" fold="1" page="0" pageScale="1" pageWidth="827" pageHeight="1169" math="0" shadow="0">
            <root>
                <mxCell id="0"/>
                <mxCell id="1" parent="0"/>
                <mxCell id="0ThIVQodMe8Fe66pffYD-1" value="用户查询取餐历史" style="swimlane;childLayout=stackLayout;resizeParent=1;resizeParentMax=0;startSize=20;" parent="1" vertex="1">
                    <mxGeometry x="210" y="200" width="1250" height="1030" as="geometry"/>
                </mxCell>
                <mxCell id="0ThIVQodMe8Fe66pffYD-5" value="前端" style="swimlane;startSize=20;" parent="0ThIVQodMe8Fe66pffYD-1" vertex="1">
                    <mxGeometry y="20" width="440" height="1010" as="geometry"/>
                </mxCell>
                <mxCell id="0ThIVQodMe8Fe66pffYD-8" value="传入 phoneNum" style="rounded=1;whiteSpace=wrap;html=1;" parent="0ThIVQodMe8Fe66pffYD-5" vertex="1">
                    <mxGeometry x="30" y="160" width="130" height="40" as="geometry"/>
                </mxCell>
                <mxCell id="Guz9CQKoLYnIFQbqwND--5" style="edgeStyle=orthogonalEdgeStyle;rounded=0;orthogonalLoop=1;jettySize=auto;html=1;exitX=0.5;exitY=1;exitDx=0;exitDy=0;entryX=0.5;entryY=0;entryDx=0;entryDy=0;" parent="0ThIVQodMe8Fe66pffYD-5" source="Guz9CQKoLYnIFQbqwND--4" target="0ThIVQodMe8Fe66pffYD-8" edge="1">
                    <mxGeometry relative="1" as="geometry"/>
                </mxCell>
                <mxCell id="Guz9CQKoLYnIFQbqwND--4" value="选择查询历史取餐记录功能，并输入手机号" style="rounded=1;whiteSpace=wrap;html=1;" parent="0ThIVQodMe8Fe66pffYD-5" vertex="1">
                    <mxGeometry x="30" y="90" width="130" height="40" as="geometry"/>
                </mxCell>
                <mxCell id="t042IP7jG-Iy3ZiAsDsc-42" value="" style="edgeStyle=orthogonalEdgeStyle;rounded=0;orthogonalLoop=1;jettySize=auto;html=1;" parent="0ThIVQodMe8Fe66pffYD-5" source="Guz9CQKoLYnIFQbqwND--18" target="t042IP7jG-Iy3ZiAsDsc-37" edge="1">
                    <mxGeometry relative="1" as="geometry"/>
                </mxCell>
                <mxCell id="Guz9CQKoLYnIFQbqwND--18" value="将获取的用户取餐数据通过tableData展示在页面" style="rounded=1;whiteSpace=wrap;html=1;" parent="0ThIVQodMe8Fe66pffYD-5" vertex="1">
                    <mxGeometry x="57.5" y="640" width="155" height="60" as="geometry"/>
                </mxCell>
                <mxCell id="t042IP7jG-Iy3ZiAsDsc-9" value="渲染空列表" style="rounded=1;whiteSpace=wrap;html=1;" parent="0ThIVQodMe8Fe66pffYD-5" vertex="1">
                    <mxGeometry x="75" y="365" width="120" height="60" as="geometry"/>
                </mxCell>
                <mxCell id="t042IP7jG-Iy3ZiAsDsc-33" value="将JSONObject转换成JSON字符串" style="text;html=1;align=center;verticalAlign=middle;resizable=0;points=[];autosize=1;strokeColor=none;fillColor=none;" parent="0ThIVQodMe8Fe66pffYD-5" vertex="1">
                    <mxGeometry x="260" y="510" width="200" height="20" as="geometry"/>
                </mxCell>
                <mxCell id="t042IP7jG-Iy3ZiAsDsc-39" style="edgeStyle=orthogonalEdgeStyle;rounded=0;orthogonalLoop=1;jettySize=auto;html=1;exitX=0.5;exitY=0;exitDx=0;exitDy=0;entryX=0.5;entryY=1;entryDx=0;entryDy=0;" parent="0ThIVQodMe8Fe66pffYD-5" source="t042IP7jG-Iy3ZiAsDsc-37" target="t042IP7jG-Iy3ZiAsDsc-9" edge="1">
                    <mxGeometry relative="1" as="geometry"/>
                </mxCell>
                <mxCell id="t042IP7jG-Iy3ZiAsDsc-41" style="edgeStyle=orthogonalEdgeStyle;rounded=0;orthogonalLoop=1;jettySize=auto;html=1;exitX=0.5;exitY=1;exitDx=0;exitDy=0;entryX=0.5;entryY=0;entryDx=0;entryDy=0;" parent="0ThIVQodMe8Fe66pffYD-5" source="t042IP7jG-Iy3ZiAsDsc-37" target="Guz9CQKoLYnIFQbqwND--18" edge="1">
                    <mxGeometry relative="1" as="geometry"/>
                </mxCell>
                <mxCell id="t042IP7jG-Iy3ZiAsDsc-37" value="response.data.message是否为“success”" style="rhombus;whiteSpace=wrap;html=1;" parent="0ThIVQodMe8Fe66pffYD-5" vertex="1">
                    <mxGeometry x="20" y="490" width="230" height="80" as="geometry"/>
                </mxCell>
                <mxCell id="0ThIVQodMe8Fe66pffYD-25" value="后端" style="swimlane;startSize=20;" parent="0ThIVQodMe8Fe66pffYD-1" vertex="1">
                    <mxGeometry x="440" y="20" width="450" height="1010" as="geometry"/>
                </mxCell>
                <mxCell id="0ThIVQodMe8Fe66pffYD-26" value="自定义jsonReader读取json为Java对象并获取关键数据" style="rounded=1;whiteSpace=wrap;html=1;" parent="0ThIVQodMe8Fe66pffYD-25" vertex="1">
                    <mxGeometry x="146.5" y="240" width="157" height="40" as="geometry"/>
                </mxCell>
                <mxCell id="Guz9CQKoLYnIFQbqwND--3" style="edgeStyle=orthogonalEdgeStyle;rounded=0;orthogonalLoop=1;jettySize=auto;html=1;exitX=1;exitY=0.5;exitDx=0;exitDy=0;entryX=0;entryY=0.5;entryDx=0;entryDy=0;" parent="0ThIVQodMe8Fe66pffYD-25" source="0ThIVQodMe8Fe66pffYD-10" target="0ThIVQodMe8Fe66pffYD-26" edge="1">
                    <mxGeometry relative="1" as="geometry"/>
                </mxCell>
                <mxCell id="0ThIVQodMe8Fe66pffYD-10" value="Tomcat服务器" style="rounded=1;whiteSpace=wrap;html=1;" parent="0ThIVQodMe8Fe66pffYD-25" vertex="1">
                    <mxGeometry x="-60" y="240" width="120" height="40" as="geometry"/>
                </mxCell>
                <mxCell id="Guz9CQKoLYnIFQbqwND--6" value="手机号" style="text;html=1;align=center;verticalAlign=middle;resizable=0;points=[];autosize=1;strokeColor=none;fillColor=none;" parent="0ThIVQodMe8Fe66pffYD-25" vertex="1">
                    <mxGeometry x="320" y="260" width="50" height="20" as="geometry"/>
                </mxCell>
                <mxCell id="t042IP7jG-Iy3ZiAsDsc-36" style="edgeStyle=orthogonalEdgeStyle;rounded=0;orthogonalLoop=1;jettySize=auto;html=1;exitX=0.5;exitY=0;exitDx=0;exitDy=0;entryX=0.5;entryY=1;entryDx=0;entryDy=0;" parent="0ThIVQodMe8Fe66pffYD-25" source="Guz9CQKoLYnIFQbqwND--22" target="t042IP7jG-Iy3ZiAsDsc-34" edge="1">
                    <mxGeometry relative="1" as="geometry"/>
                </mxCell>
                <mxCell id="Guz9CQKoLYnIFQbqwND--22" value="将JSONArray封装成JSONObject" style="rounded=1;whiteSpace=wrap;html=1;" parent="0ThIVQodMe8Fe66pffYD-25" vertex="1">
                    <mxGeometry x="20" y="640" width="120" height="60" as="geometry"/>
                </mxCell>
                <mxCell id="t042IP7jG-Iy3ZiAsDsc-26" style="edgeStyle=orthogonalEdgeStyle;rounded=0;orthogonalLoop=1;jettySize=auto;html=1;exitX=0.5;exitY=1;exitDx=0;exitDy=0;" parent="0ThIVQodMe8Fe66pffYD-25" source="t042IP7jG-Iy3ZiAsDsc-2" target="t042IP7jG-Iy3ZiAsDsc-25" edge="1">
                    <mxGeometry relative="1" as="geometry"/>
                </mxCell>
                <mxCell id="t042IP7jG-Iy3ZiAsDsc-28" style="edgeStyle=orthogonalEdgeStyle;rounded=0;orthogonalLoop=1;jettySize=auto;html=1;exitX=0.5;exitY=0;exitDx=0;exitDy=0;entryX=1;entryY=0.5;entryDx=0;entryDy=0;" parent="0ThIVQodMe8Fe66pffYD-25" source="t042IP7jG-Iy3ZiAsDsc-2" target="t042IP7jG-Iy3ZiAsDsc-24" edge="1">
                    <mxGeometry relative="1" as="geometry"/>
                </mxCell>
                <mxCell id="t042IP7jG-Iy3ZiAsDsc-2" value="Resultset是否为空" style="rhombus;whiteSpace=wrap;html=1;" parent="0ThIVQodMe8Fe66pffYD-25" vertex="1">
                    <mxGeometry x="290" y="500" width="140" height="80" as="geometry"/>
                </mxCell>
                <mxCell id="t042IP7jG-Iy3ZiAsDsc-15" style="edgeStyle=orthogonalEdgeStyle;rounded=0;orthogonalLoop=1;jettySize=auto;html=1;exitX=0;exitY=0.5;exitDx=0;exitDy=0;entryX=1;entryY=0.5;entryDx=0;entryDy=0;" parent="0ThIVQodMe8Fe66pffYD-25" source="t042IP7jG-Iy3ZiAsDsc-11" target="Guz9CQKoLYnIFQbqwND--22" edge="1">
                    <mxGeometry relative="1" as="geometry"/>
                </mxCell>
                <mxCell id="t042IP7jG-Iy3ZiAsDsc-11" value="遍历结果集，将用户手机号对应的记录每一个元素存到JSONArray" style="rounded=1;whiteSpace=wrap;html=1;" parent="0ThIVQodMe8Fe66pffYD-25" vertex="1">
                    <mxGeometry x="165" y="640" width="120" height="60" as="geometry"/>
                </mxCell>
                <mxCell id="t042IP7jG-Iy3ZiAsDsc-8" value="否" style="text;html=1;align=center;verticalAlign=middle;resizable=0;points=[];autosize=1;strokeColor=none;fillColor=none;" parent="0ThIVQodMe8Fe66pffYD-25" vertex="1">
                    <mxGeometry x="360" y="610" width="30" height="20" as="geometry"/>
                </mxCell>
                <mxCell id="t042IP7jG-Iy3ZiAsDsc-7" value="是" style="text;html=1;align=center;verticalAlign=middle;resizable=0;points=[];autosize=1;strokeColor=none;fillColor=none;" parent="0ThIVQodMe8Fe66pffYD-25" vertex="1">
                    <mxGeometry x="360" y="440" width="30" height="20" as="geometry"/>
                </mxCell>
                <mxCell id="t042IP7jG-Iy3ZiAsDsc-35" style="edgeStyle=orthogonalEdgeStyle;rounded=0;orthogonalLoop=1;jettySize=auto;html=1;exitX=0.5;exitY=1;exitDx=0;exitDy=0;entryX=1;entryY=0.5;entryDx=0;entryDy=0;" parent="0ThIVQodMe8Fe66pffYD-25" source="t042IP7jG-Iy3ZiAsDsc-24" target="t042IP7jG-Iy3ZiAsDsc-34" edge="1">
                    <mxGeometry relative="1" as="geometry"/>
                </mxCell>
                <mxCell id="t042IP7jG-Iy3ZiAsDsc-24" value="res=“error”" style="rounded=1;whiteSpace=wrap;html=1;" parent="0ThIVQodMe8Fe66pffYD-25" vertex="1">
                    <mxGeometry x="190" y="360" width="120" height="60" as="geometry"/>
                </mxCell>
                <mxCell id="t042IP7jG-Iy3ZiAsDsc-27" style="edgeStyle=orthogonalEdgeStyle;rounded=0;orthogonalLoop=1;jettySize=auto;html=1;exitX=0;exitY=0.5;exitDx=0;exitDy=0;entryX=1;entryY=0.5;entryDx=0;entryDy=0;" parent="0ThIVQodMe8Fe66pffYD-25" source="t042IP7jG-Iy3ZiAsDsc-25" target="t042IP7jG-Iy3ZiAsDsc-11" edge="1">
                    <mxGeometry relative="1" as="geometry"/>
                </mxCell>
                <mxCell id="t042IP7jG-Iy3ZiAsDsc-25" value="res=“success”" style="rounded=1;whiteSpace=wrap;html=1;" parent="0ThIVQodMe8Fe66pffYD-25" vertex="1">
                    <mxGeometry x="300" y="640" width="120" height="60" as="geometry"/>
                </mxCell>
                <mxCell id="t042IP7jG-Iy3ZiAsDsc-34" value="将res封装到JSONObject" style="rounded=1;whiteSpace=wrap;html=1;" parent="0ThIVQodMe8Fe66pffYD-25" vertex="1">
                    <mxGeometry x="20" y="500" width="120" height="60" as="geometry"/>
                </mxCell>
                <mxCell id="0ThIVQodMe8Fe66pffYD-32" value="数据库" style="swimlane;startSize=20;" parent="0ThIVQodMe8Fe66pffYD-1" vertex="1">
                    <mxGeometry x="890" y="20" width="360" height="1010" as="geometry"/>
                </mxCell>
                <mxCell id="0ThIVQodMe8Fe66pffYD-33" style="edgeStyle=orthogonalEdgeStyle;rounded=0;orthogonalLoop=1;jettySize=auto;html=1;exitX=0.5;exitY=1;exitDx=0;exitDy=0;" parent="0ThIVQodMe8Fe66pffYD-32" target="0ThIVQodMe8Fe66pffYD-35" edge="1">
                    <mxGeometry relative="1" as="geometry">
                        <Array as="points">
                            <mxPoint x="170" y="370"/>
                            <mxPoint x="170" y="370"/>
                        </Array>
                        <mxPoint x="170" y="150" as="sourcePoint"/>
                    </mxGeometry>
                </mxCell>
                <mxCell id="0ThIVQodMe8Fe66pffYD-35" value="得到查询结果集" style="rounded=1;whiteSpace=wrap;html=1;" parent="0ThIVQodMe8Fe66pffYD-32" vertex="1">
                    <mxGeometry x="110" y="510" width="120" height="60" as="geometry"/>
                </mxCell>
                <mxCell id="0ThIVQodMe8Fe66pffYD-36" value="" style="endArrow=none;html=1;rounded=0;" parent="0ThIVQodMe8Fe66pffYD-32" edge="1">
                    <mxGeometry width="50" height="50" relative="1" as="geometry">
                        <mxPoint x="60" y="259.5" as="sourcePoint"/>
                        <mxPoint x="170" y="259.5" as="targetPoint"/>
                        <Array as="points">
                            <mxPoint x="120" y="259.5"/>
                        </Array>
                    </mxGeometry>
                </mxCell>
                <mxCell id="0ThIVQodMe8Fe66pffYD-37" value="查询语句" style="text;html=1;align=center;verticalAlign=middle;resizable=0;points=[];autosize=1;strokeColor=none;fillColor=none;" parent="0ThIVQodMe8Fe66pffYD-32" vertex="1">
                    <mxGeometry x="80" y="235" width="60" height="20" as="geometry"/>
                </mxCell>
                <mxCell id="0ThIVQodMe8Fe66pffYD-38" value="JDBC driver" style="rounded=1;whiteSpace=wrap;html=1;" parent="0ThIVQodMe8Fe66pffYD-32" vertex="1">
                    <mxGeometry x="-60" y="230" width="120" height="60" as="geometry"/>
                </mxCell>
                <mxCell id="Guz9CQKoLYnIFQbqwND--25" value="&lt;span&gt;连接history数据库&lt;/span&gt;" style="shape=cylinder3;whiteSpace=wrap;html=1;boundedLbl=1;backgroundOutline=1;size=15;" parent="0ThIVQodMe8Fe66pffYD-32" vertex="1">
                    <mxGeometry x="130" y="60" width="80" height="90" as="geometry"/>
                </mxCell>
                <mxCell id="0ThIVQodMe8Fe66pffYD-40" style="edgeStyle=orthogonalEdgeStyle;rounded=0;orthogonalLoop=1;jettySize=auto;html=1;" parent="0ThIVQodMe8Fe66pffYD-1" source="0ThIVQodMe8Fe66pffYD-26" target="0ThIVQodMe8Fe66pffYD-38" edge="1">
                    <mxGeometry relative="1" as="geometry"/>
                </mxCell>
                <mxCell id="0ThIVQodMe8Fe66pffYD-7" style="edgeStyle=orthogonalEdgeStyle;rounded=0;orthogonalLoop=1;jettySize=auto;html=1;exitX=0.5;exitY=1;exitDx=0;exitDy=0;entryX=0.5;entryY=0;entryDx=0;entryDy=0;" parent="0ThIVQodMe8Fe66pffYD-1" source="0ThIVQodMe8Fe66pffYD-8" target="0ThIVQodMe8Fe66pffYD-10" edge="1">
                    <mxGeometry relative="1" as="geometry"/>
                </mxCell>
                <mxCell id="Guz9CQKoLYnIFQbqwND--26" style="edgeStyle=orthogonalEdgeStyle;rounded=0;orthogonalLoop=1;jettySize=auto;html=1;exitX=0;exitY=0.5;exitDx=0;exitDy=0;entryX=1;entryY=0.5;entryDx=0;entryDy=0;" parent="0ThIVQodMe8Fe66pffYD-1" source="0ThIVQodMe8Fe66pffYD-35" target="t042IP7jG-Iy3ZiAsDsc-2" edge="1">
                    <mxGeometry relative="1" as="geometry"/>
                </mxCell>
                <mxCell id="t042IP7jG-Iy3ZiAsDsc-38" style="edgeStyle=orthogonalEdgeStyle;rounded=0;orthogonalLoop=1;jettySize=auto;html=1;exitX=0;exitY=0.5;exitDx=0;exitDy=0;entryX=1;entryY=0.5;entryDx=0;entryDy=0;" parent="0ThIVQodMe8Fe66pffYD-1" source="t042IP7jG-Iy3ZiAsDsc-34" target="t042IP7jG-Iy3ZiAsDsc-37" edge="1">
                    <mxGeometry relative="1" as="geometry"/>
                </mxCell>
                <mxCell id="t042IP7jG-Iy3ZiAsDsc-14" style="edgeStyle=orthogonalEdgeStyle;rounded=0;orthogonalLoop=1;jettySize=auto;html=1;exitX=0;exitY=0.5;exitDx=0;exitDy=0;" parent="1" edge="1">
                    <mxGeometry relative="1" as="geometry">
                        <mxPoint x="490" y="610.4285714285716" as="targetPoint"/>
                        <mxPoint x="490" y="610.0000000000002" as="sourcePoint"/>
                    </mxGeometry>
                </mxCell>
                <mxCell id="t042IP7jG-Iy3ZiAsDsc-40" value="否" style="text;html=1;align=center;verticalAlign=middle;resizable=0;points=[];autosize=1;strokeColor=none;fillColor=none;" parent="1" vertex="1">
                    <mxGeometry x="345" y="670" width="30" height="20" as="geometry"/>
                </mxCell>
                <mxCell id="t042IP7jG-Iy3ZiAsDsc-43" value="是" style="text;html=1;align=center;verticalAlign=middle;resizable=0;points=[];autosize=1;strokeColor=none;fillColor=none;" parent="1" vertex="1">
                    <mxGeometry x="345" y="820" width="30" height="20" as="geometry"/>
                </mxCell>
                <mxCell id="3" value="POST /takeout_bin/getHistory" style="text;html=1;align=center;verticalAlign=middle;resizable=0;points=[];autosize=1;strokeColor=none;fillColor=none;" vertex="1" parent="1">
                    <mxGeometry x="385" y="420" width="170" height="20" as="geometry"/>
                </mxCell>
            </root>
        </mxGraphModel>
    </diagram>
</mxfile>